<svg width="63.176px" height="60.795px" xmlns="http://www.w3.org/2000/svg" viewBox="0 0 1000.15 294.48"><path d="M622.77,283.89a5.44,5.44,0,0,1-5.43,5.43H584.9a5.43,5.43,0,0,1-5.43-5.43V110.38a1.76,1.76,0,0,0-3.39-.65L506,284.32a7.93,7.93,0,0,1-7.38,5h-31a8,8,0,0,1-7.39-5L390.38,110.48a1.76,1.76,0,0,0-3.4.65V283.88a5.44,5.44,0,0,1-5.43,5.43h-31.3a5.43,5.43,0,0,1-5.43-5.43V8.15a5.44,5.44,0,0,1,5.43-5.43h32.34a6.54,6.54,0,0,1,6.05,4.06l92.8,227a1.92,1.92,0,0,0,3.55,0L577.78,6.83a6.53,6.53,0,0,1,6.11-4.06l33.5,0a5.41,5.41,0,0,1,5.38,5.41V283.9Z" style="fill:#662e7d"/><path d="M665.92,47.54a26.71,26.71,0,0,1-8.08-19.62,27.18,27.18,0,0,1,8.08-19.83A26.85,26.85,0,0,1,685.75,0a26,26,0,0,1,19.44,8.08,26.85,26.85,0,0,1,8.09,19.83,26,26,0,0,1-8.09,19.44,26.07,26.07,0,0,1-19.44,8.28,26.86,26.86,0,0,1-19.83-8.09m40.8,53.53v182.8a5.41,5.41,0,0,1-5.41,5.41H670.18a5.41,5.41,0,0,1-5.41-5.41V101.07a5.41,5.41,0,0,1,5.41-5.41h31.13a5.41,5.41,0,0,1,5.41,5.41" style="fill:#662e7d"/><path d="M754.16,2.69H785a5.45,5.45,0,0,1,5.45,5.45v275.7a5.45,5.45,0,0,1-5.45,5.45H754.16a5.45,5.45,0,0,1-5.45-5.45V8.14a5.45,5.45,0,0,1,5.45-5.45" style="fill:#662e7d"/><path d="M960,285.62a191.89,191.89,0,0,1-2.26-20.39c-5.58,8.66-13.67,15.78-24.44,21.17s-23.29,8.08-37.53,8.08q-31.47,0-50.82-16.74c-12.89-11.17-19.25-26.37-19.25-45.62s6.35-33.68,19-44.46,29.84-16.17,51.39-16.17H957V164c0-26.37-14.44-39.46-43.5-39.46q-33.09,0-48.22,24.42a5.57,5.57,0,0,1-7.5,1.83l-21.11-12.15a5.57,5.57,0,0,1-2.14-7.58q24-41.05,81.09-40.78c24.06,0,43.88,6.16,59.28,18.48S998,141.07,998,168.6v79.3c0,16.74.71,28.75,2.12,36.22a4.34,4.34,0,0,1-4.29,5.17H964.47a4.53,4.53,0,0,1-4.49-3.68m-3-84.67H905.56q-18.18,0-27.71,8.08c-6.35,5.39-9.62,12.9-9.62,22.71s3.27,17.52,10,22.71,16,7.69,27.72,7.69c14.44,0,26.56-4.81,36.37-14.24S957,224.41,957,205.74v-4.81Z" style="fill:#662e7d"/><path d="M217.48,147.24a8.65,8.65,0,1,1-8.66-8.63,8.66,8.66,0,0,1,8.66,8.63" style="fill:#662e7d"/><path d="M296.33,147.24a8.65,8.65,0,1,1-8.66-8.63,8.66,8.66,0,0,1,8.66,8.63" style="fill:#662e7d"/><path d="M256.66,80.35A8.65,8.65,0,1,1,248,71.72a8.66,8.66,0,0,1,8.66,8.63" style="fill:#662e7d"/><path d="M177.8,80.35a8.65,8.65,0,1,1-8.66-8.63,8.66,8.66,0,0,1,8.66,8.63" style="fill:#662e7d"/><path d="M217.48,13.91a8.65,8.65,0,1,1-8.66-8.63,8.66,8.66,0,0,1,8.66,8.63" style="fill:#662e7d"/><path d="M193.76,16H172.49a2.1,2.1,0,0,1,0-4.19h21.27a2.1,2.1,0,0,1,0,4.19" style="fill:#662e7d"/><path d="M216.57,136.13a2,2,0,0,1-1.06-.29,2.09,2.09,0,0,1-.73-2.87l23.95-40.6a2.09,2.09,0,1,1,3.6,2.13l-24,40.6a2.1,2.1,0,0,1-1.8,1" style="fill:#662e7d"/><path d="M177.07,69.78a2,2,0,0,1-1.06-.29,2.09,2.09,0,0,1-.74-2.86l24.09-40.84A2.1,2.1,0,1,1,203,27.92L178.88,68.75a2.1,2.1,0,0,1-1.8,1" style="fill:#662e7d"/><path d="M148,118.79a2,2,0,0,1-1.06-.29,2.11,2.11,0,0,1-.74-2.87l13.89-23.51a2.08,2.08,0,1,1,3.59,2.12l-13.89,23.51a2.1,2.1,0,0,1-1.8,1" style="fill:#662e7d"/><path d="M240.52,69.78a2.08,2.08,0,0,1-1.8-1L214.77,28.16a2.09,2.09,0,1,1,3.6-2.13l23.95,40.6a2.08,2.08,0,0,1-.74,2.86,2,2,0,0,1-1.06.29" style="fill:#662e7d"/><path d="M161.91,69.78a2.08,2.08,0,0,1-1.8-1l-6.29-10.63A2.1,2.1,0,0,1,157.43,56l6.29,10.63a2.09,2.09,0,0,1-.74,2.87,2.07,2.07,0,0,1-1.06.29" style="fill:#662e7d"/><path d="M201.18,136.13a2.08,2.08,0,0,1-1.8-1l-24.1-40.84a2.09,2.09,0,0,1,3.6-2.14L203,133a2.1,2.1,0,0,1-.74,2.86,2,2,0,0,1-1.06.29" style="fill:#662e7d"/><path d="M232.93,82.44H184.22a2.09,2.09,0,1,1,0-4.18h48.71a2.09,2.09,0,1,1,0,4.18" style="fill:#662e7d"/><path d="M279.82,136.13a2.08,2.08,0,0,1-1.8-1L253.94,94.29a2.09,2.09,0,0,1,3.61-2.12L281.63,133a2.09,2.09,0,0,1-.74,2.87,2,2,0,0,1-1.06.29" style="fill:#662e7d"/><path d="M154.07,78.26a2.09,2.09,0,1,1,0,4.18H138.36a2.1,2.1,0,0,1,0-4.19h15.71Z" style="fill:#662e7d"/><path d="M193.76,149.33H166.7a2.1,2.1,0,1,1,0-4.19h27.06a2.1,2.1,0,0,1,0,4.19" style="fill:#662e7d"/><path d="M272.61,149.33H223.92a2.1,2.1,0,1,1,0-4.19h48.69a2.1,2.1,0,0,1,0,4.19" style="fill:#662e7d"/><path d="M35,115.35a35,35,0,1,0-35-35,35,35,0,0,0,35,35" style="fill:#662e7d"/><path d="M79.74,80.35a25.63,25.63,0,1,0,25.63-25.63A25.66,25.66,0,0,0,79.74,80.35" style="fill:#662e7d"/><path d="M20.85,165.19a17.95,17.95,0,1,0-18-17.95,18,18,0,0,0,18,17.95" style="fill:#662e7d"/><path d="M142,53.16a26.58,26.58,0,1,0-26.58-26.58A26.61,26.61,0,0,0,142,53.16" style="fill:#662e7d"/><path d="M132.58,173.82A26.58,26.58,0,1,0,106,147.24a26.61,26.61,0,0,0,26.58,26.58" style="fill:#662e7d"/><path d="M77.42,47.6a21,21,0,1,0-21-21,21,21,0,0,0,21,21" style="fill:#662e7d"/><path d="M72.17,168.26a21,21,0,1,0-21-21,21,21,0,0,0,21,21" style="fill:#662e7d"/><path d="M256.66,214.14a8.65,8.65,0,1,0-8.66,8.63,8.66,8.66,0,0,0,8.66-8.63" style="fill:#662e7d"/><path d="M177.8,214.14a8.65,8.65,0,1,0-8.66,8.63,8.66,8.66,0,0,0,8.66-8.63" style="fill:#662e7d"/><path d="M217.48,280.57a8.65,8.65,0,1,0-8.66,8.63,8.66,8.66,0,0,0,8.66-8.63" style="fill:#662e7d"/><path d="M193.76,278.48H172.49a2.1,2.1,0,0,0,0,4.19h21.27a2.1,2.1,0,0,0,0-4.19" style="fill:#662e7d"/><path d="M216.57,158.36a2,2,0,0,0-1.06.29,2.09,2.09,0,0,0-.73,2.87l23.95,40.6a2.09,2.09,0,1,0,3.6-2.13l-24-40.6a2.1,2.1,0,0,0-1.8-1" style="fill:#662e7d"/><path d="M177.07,224.71A2,2,0,0,0,176,225a2.09,2.09,0,0,0-.74,2.86l24.09,40.84a2.1,2.1,0,0,0,3.61-2.13l-24.09-40.83a2.1,2.1,0,0,0-1.8-1" style="fill:#662e7d"/><path d="M148,175.69A2,2,0,0,0,147,176a2.11,2.11,0,0,0-.74,2.87l13.89,23.51a2.08,2.08,0,1,0,3.59-2.12l-13.89-23.51a2.1,2.1,0,0,0-1.8-1" style="fill:#662e7d"/><path d="M240.52,224.71a2.08,2.08,0,0,0-1.8,1l-23.95,40.59a2.09,2.09,0,1,0,3.6,2.13l23.95-40.6a2.08,2.08,0,0,0-.74-2.86,2,2,0,0,0-1.06-.29" style="fill:#662e7d"/><path d="M161.91,224.71a2.08,2.08,0,0,0-1.8,1l-6.29,10.63a2.1,2.1,0,0,0,3.61,2.13l6.29-10.63A2.09,2.09,0,0,0,163,225a2.07,2.07,0,0,0-1.06-.29" style="fill:#662e7d"/><path d="M201.18,158.36a2.08,2.08,0,0,0-1.8,1l-24.1,40.84a2.09,2.09,0,0,0,3.6,2.14L203,161.52a2.1,2.1,0,0,0-.74-2.86,2,2,0,0,0-1.06-.29" style="fill:#662e7d"/><path d="M232.93,212.05H184.22a2.09,2.09,0,1,0,0,4.18h48.71a2.09,2.09,0,1,0,0-4.18" style="fill:#662e7d"/><path d="M279.82,158.36a2.08,2.08,0,0,0-1.8,1L253.94,200.2a2.09,2.09,0,0,0,3.61,2.12l24.08-40.8a2.09,2.09,0,0,0-.74-2.87,2,2,0,0,0-1.06-.29" style="fill:#662e7d"/><path d="M154.07,216.23a2.09,2.09,0,1,0,0-4.18H138.36a2.1,2.1,0,0,0,0,4.19h15.71Z" style="fill:#662e7d"/><path d="M35,179.14a35,35,0,1,1-35,35,35,35,0,0,1,35-35" style="fill:#662e7d"/><path d="M79.74,214.14a25.63,25.63,0,1,1,25.63,25.63,25.66,25.66,0,0,1-25.63-25.63" style="fill:#662e7d"/><path d="M142,241.32a26.58,26.58,0,1,1-26.58,26.58A26.61,26.61,0,0,1,142,241.32" style="fill:#662e7d"/><path d="M77.42,246.88a21,21,0,1,1-21,21,21,21,0,0,1,21-21" style="fill:#662e7d"/></svg>
